<?xml version="1.0" encoding="UTF-8" standalone="no"?>
<!DOCTYPE svg PUBLIC "-//W3C//DTD SVG 1.1//EN" "http://www.w3.org/Graphics/SVG/1.1/DTD/svg11.dtd">
<svg width="100%" height="100%" viewBox="0 0 80 80" version="1.1" xmlns="http://www.w3.org/2000/svg" xmlns:xlink="http://www.w3.org/1999/xlink" xml:space="preserve" xmlns:serif="http://www.serif.com/" style="fill-rule:evenodd;clip-rule:evenodd;stroke-linecap:round;stroke-linejoin:round;stroke-miterlimit:1.5;">
    <g transform="matrix(1,0,0,1,-292,0)">
        <g id="UserIcon" transform="matrix(1,0,0,1,-0.666667,0)">
            <rect x="292.667" y="0" width="80" height="80" style="fill:none;"/>
            <g transform="matrix(1,0,0,1,-1.83333,7.07851)">
                <path d="M357,36.941C357,31.411 352.51,26.921 346.98,26.921L322.02,26.921C316.49,26.921 312,31.411 312,36.941L312,56.98C312,62.51 316.49,67 322.02,67L346.98,67C352.51,67 357,62.51 357,56.98L357,36.941Z" style="fill:none;stroke:black;stroke-width:6.67px;"/>
            </g>
            <g transform="matrix(1,0,0,1.00342,-1.83333,-0.0922052)">
                <ellipse cx="334.5" cy="15.461" rx="11.5" ry="11.461" style="fill:none;stroke:black;stroke-width:6.66px;"/>
            </g>
        </g>
    </g>
</svg>
